HIERARCHY
ROOT Hips
{
	OFFSET -0.179506 -22.333345 2.821913
	CHANNELS 6 Xposition Yposition Zposition Zrotation Yrotation Xrotation 
	JOINT LeftUpLeg
	{
		OFFSET 6.951974 -9.140623 -0.681533
		CHANNELS 3 Zrotation Yrotation Xrotation
		JOINT LeftLeg
		{
			OFFSET 3.427654 -37.519855 -0.449580
			CHANNELS 3 Zrotation Yrotation Xrotation
			JOINT LeftFoot
			{
				OFFSET -1.359570 -39.796059 -4.369333
				CHANNELS 3 Zrotation Yrotation Xrotation
				JOINT LeftToe
				{
					OFFSET 2.635814 -5.579078 11.928840
					CHANNELS 3 Zrotation Yrotation Xrotation
					End Site
					{
						OFFSET 0.000000 0.000000 0.000000
					}
				}
			}
		}
	}
	JOINT RightUpLeg
	{
		OFFSET -6.767048 -9.052170 -0.431982
		CHANNELS 3 Zrotation Yrotation Xrotation
		JOINT RightLeg
		{
			OFFSET -3.829005 -38.256897 -0.885003
			CHANNELS 3 Zrotation Yrotation Xrotation
			JOINT RightFoot
			{
				OFFSET 1.577377 -39.841461 -4.231180
				CHANNELS 3 Zrotation Yrotation Xrotation
				JOINT RightToe
				{
					OFFSET -2.537174 -4.814398 12.334795
					CHANNELS 3 Zrotation Yrotation Xrotation
					End Site
					{
						OFFSET 0.000000 0.000000 0.000000
					}
				}
			}
		}
	}
	JOINT Spine
	{
		OFFSET -0.253288 10.896323 -2.669631
		CHANNELS 3 Zrotation Yrotation Xrotation
		JOINT Spine1
		{
			OFFSET 0.548704 13.518043 0.109247
			CHANNELS 3 Zrotation Yrotation Xrotation
			JOINT Spine2
			{
				OFFSET 0.145701 5.292222 2.542457
				CHANNELS 3 Zrotation Yrotation Xrotation
				JOINT Neck
				{
					OFFSET -0.277840 21.387037 -4.285703
					CHANNELS 3 Zrotation Yrotation Xrotation
					JOINT Head
					{
						OFFSET 0.515184 6.496960 5.134897
						CHANNELS 3 Zrotation Yrotation Xrotation
						End Site
						{
							OFFSET 0.000000 0.000000 0.000000
						}
					}
				}
				JOINT LeftShoulder
				{
					OFFSET 7.884473 12.174932 -3.408961
					CHANNELS 3 Zrotation Yrotation Xrotation
					JOINT LeftArm
					{
						OFFSET 9.097692 3.046888 -0.886815
						CHANNELS 3 Zrotation Yrotation Xrotation
						JOINT LeftForeArm
						{
							OFFSET 25.961220 -1.277207 -2.745643
							CHANNELS 3 Zrotation Yrotation Xrotation
							JOINT LeftHand
							{
								OFFSET 24.923361 0.898606 -0.117091
								CHANNELS 3 Zrotation Yrotation Xrotation
								End Site
								{
									OFFSET 0.000000 0.000000 0.000000
								}
							}
						}
					}
				}
				JOINT RightShoulder
				{
					OFFSET -8.175920 11.883285 -3.861528
					CHANNELS 3 Zrotation Yrotation Xrotation
					JOINT RightArm
					{
						OFFSET -9.601238 3.255117 -0.914307
						CHANNELS 3 Zrotation Yrotation Xrotation
						JOINT RightForeArm
						{
							OFFSET -25.374195 -1.332924 -2.140099
							CHANNELS 3 Zrotation Yrotation Xrotation
							JOINT RightHand
							{
								OFFSET -25.529810 0.777228 -0.555919
								CHANNELS 3 Zrotation Yrotation Xrotation
								End Site
								{
									OFFSET 0.000000 0.000000 0.000000
								}
							}
						}
					}
				}
			}
		}
	}
}
MOTION
Frames: 7
Frame Time: 0.033333
1.969909 -51.595108 13.353730 -173.205503 -4.259171 -1.379792 13.125257 17.958656 -6.035252 -8.724471 27.903557 29.033963 0.613661 14.374357 9.914736 nan nan nan -11.685860 -13.856813 -0.468260 5.404187 -21.734981 7.486869 8.221416 -11.305515 13.181899 nan nan nan 0.004168 3.262393 0.521463 -1.375403 -1.176160 5.546922 -3.176002 1.464878 -2.220812 1.663980 8.223670 -4.024705 -3.571916 -3.608896 -5.600942 -14.239574 -0.771256 7.040326 -57.707878 4.538255 13.891250 1.934953 -21.950176 23.779139 -22.626151 -9.219014 15.941099 15.461435 9.491285 10.996545 55.608025 0.224540 11.340241 7.001251 11.015870 30.014011 19.303402 3.069261 14.489342 
2.013574 -51.610821 13.331782 -173.257998 -4.305736 -1.421325 12.860452 17.560134 -6.168598 -8.567921 27.518174 28.868502 0.623425 14.222945 9.966286 nan nan nan -11.539867 -13.814977 -0.366497 5.281085 -21.698695 7.339479 8.319763 -11.284369 13.299248 nan nan nan 0.002079 3.349553 0.646656 -1.342673 -1.223601 5.596446 -3.126414 1.426033 -2.369349 1.565818 8.239817 -4.009560 -3.450065 -3.477832 -5.672042 -14.278636 -0.817972 7.036415 -57.743041 4.542409 14.009141 1.764343 -21.858646 23.836690 -23.534505 -9.137000 15.813665 15.454905 9.535722 11.013736 55.491809 0.147896 11.483441 7.143778 11.236284 30.014579 19.623195 3.034267 14.583221 
2.041862 -51.632580 13.331754 -173.183094 -4.298219 -1.645362 12.504844 17.062634 -6.093690 -8.537258 26.994473 28.620253 0.666700 14.195544 10.077119 nan nan nan -11.661699 -13.913801 -0.041112 5.304383 -21.563109 7.193606 8.367018 -11.317752 13.369158 nan nan nan -0.101618 3.469585 0.988330 -1.357746 -1.280820 5.525020 -3.071386 1.383998 -2.364504 1.415322 8.028590 -4.052116 -3.237980 -3.345560 -5.795883 -14.253535 -0.908256 7.039706 -57.800039 4.452730 14.117611 1.680858 -21.751856 23.890642 -23.241833 -9.325431 15.619977 15.490124 9.516233 10.894253 55.300734 0.039299 11.567604 7.403846 11.443404 29.932028 19.663829 3.118346 14.520222 
2.053216 -51.643421 13.324239 -173.164171 -4.330982 -1.746516 12.185727 16.603884 -6.206525 -8.506236 26.522819 28.502933 0.645575 14.228487 10.208820 nan nan nan -11.675967 -13.922026 0.117382 5.342684 -21.364273 7.048398 8.317335 -11.461987 13.413348 nan nan nan -0.086226 3.531818 1.219598 -1.396452 -1.315391 5.278826 -3.044520 1.406334 -2.196862 1.215318 7.761691 -4.048468 -3.008787 -3.209575 -5.945751 -14.275125 -1.007511 6.966578 -57.841647 4.466165 14.275759 1.590919 -21.655112 24.091426 -22.715062 -9.599854 15.229487 15.467460 9.459375 10.714896 55.108856 -0.082537 11.587153 7.722246 11.636769 30.046408 19.586865 3.242764 14.243841 
2.064513 -51.650936 13.308461 -173.185764 -4.362932 -1.733473 11.868294 16.118241 -6.467230 -8.459476 26.082936 28.424852 0.600618 14.314163 10.363143 nan nan nan -11.584018 -13.843473 0.166273 5.364945 -21.168166 6.819677 8.261271 -11.703440 13.465225 nan nan nan -0.055591 3.584044 1.304352 -1.403750 -1.370244 5.047123 -3.023177 1.443806 -2.041856 1.011231 7.519911 -4.031861 -2.743394 -3.042546 -6.053853 -14.284327 -1.097302 6.895855 -57.898376 4.542809 14.536520 1.410720 -21.572379 24.615981 -22.341825 -9.911033 14.708539 15.415179 9.389256 10.528344 55.008498 -0.234371 11.701447 7.960635 11.820786 30.385099 19.413906 3.359430 13.925121 
2.085883 -51.663097 13.290984 -173.229883 -4.407658 -1.731002 11.580438 15.662485 -6.701569 -8.386073 25.710231 28.365823 0.636109 14.378253 10.494988 nan nan nan -11.431888 -13.736656 0.300871 5.408462 -20.961935 6.410230 8.145371 -11.958363 13.562058 nan nan nan -0.016830 3.664725 1.364315 -1.400917 -1.415300 4.942411 -3.000043 1.460891 -1.975278 0.834145 7.243425 -4.096744 -2.554333 -2.958792 -6.060860 -14.330613 -1.166234 6.833105 -57.945581 4.607354 14.728555 1.334763 -21.532256 24.922998 -22.052477 -10.054111 14.357731 15.377077 9.309369 10.384729 54.931566 -0.402921 11.811991 8.131530 12.084739 30.716142 19.338358 3.386036 13.688216 
2.115674 -51.669624 13.244419 -173.293968 -4.455118 -1.684902 11.316239 15.211435 -7.004600 -8.248888 25.467121 28.368518 0.756888 14.333116 10.601499 nan nan nan -11.215928 -13.579391 0.331774 5.393184 -20.885226 6.095239 8.061158 -12.195134 13.690841 nan nan nan 0.037598 3.747399 1.426933 -1.399279 -1.436919 4.860024 -2.977252 1.460434 -1.965855 0.678436 7.028084 -4.202282 -2.423482 -2.990205 -6.043811 -14.324987 -1.210891 6.741829 -58.068954 4.634926 14.874250 1.357856 -21.457920 24.938126 -22.190263 -9.996544 14.271877 15.340231 9.232122 10.294518 54.831845 -0.596226 11.867810 8.243334 12.444268 30.805899 19.443714 3.379010 13.674450 
